<mxfile host="app.diagrams.net" modified="2024-07-12T16:17:33.099Z" agent="Mozilla/5.0 (X11; Linux x86_64) AppleWebKit/537.36 (KHTML, like Gecko) Chrome/126.0.0.0 Safari/537.36" etag="YaFZ2WkkLfdZfI4ZNCpf" version="24.6.5" type="device">
  <diagram name="Page-1" id="URs7sFwrlrl73kKegKTF">
    <mxGraphModel dx="1434" dy="788" grid="1" gridSize="10" guides="1" tooltips="1" connect="1" arrows="1" fold="1" page="1" pageScale="1" pageWidth="850" pageHeight="1100" math="0" shadow="0">
      <root>
        <mxCell id="0" />
        <mxCell id="1" parent="0" />
        <mxCell id="ZFQjSwjK31iPssHgUQ-2-1" value="" style="rounded=1;whiteSpace=wrap;html=1;" parent="1" vertex="1">
          <mxGeometry x="360" y="338" width="110" height="232" as="geometry" />
        </mxCell>
        <mxCell id="ZFQjSwjK31iPssHgUQ-2-2" value="&lt;div&gt;Context&lt;/div&gt;" style="rounded=1;whiteSpace=wrap;html=1;" parent="1" vertex="1">
          <mxGeometry x="360" y="348" width="110" height="20" as="geometry" />
        </mxCell>
        <mxCell id="ZFQjSwjK31iPssHgUQ-2-3" value="&lt;div&gt;Initial Prompt&lt;/div&gt;" style="rounded=1;whiteSpace=wrap;html=1;" parent="1" vertex="1">
          <mxGeometry x="360" y="368" width="110" height="40" as="geometry" />
        </mxCell>
        <mxCell id="ZFQjSwjK31iPssHgUQ-2-4" value="&lt;div&gt;Response&lt;/div&gt;" style="rounded=1;whiteSpace=wrap;html=1;" parent="1" vertex="1">
          <mxGeometry x="360" y="408" width="110" height="40" as="geometry" />
        </mxCell>
        <mxCell id="ZFQjSwjK31iPssHgUQ-2-5" value="&lt;div&gt;&lt;font color=&quot;#ff3333&quot;&gt;Follow-up Prompt&lt;/font&gt;&lt;/div&gt;" style="rounded=1;whiteSpace=wrap;html=1;" parent="1" vertex="1">
          <mxGeometry x="360" y="448" width="110" height="40" as="geometry" />
        </mxCell>
        <mxCell id="ZFQjSwjK31iPssHgUQ-2-6" value="&lt;div&gt;&lt;font color=&quot;#ff3333&quot;&gt;Response&lt;/font&gt;&lt;/div&gt;" style="rounded=1;whiteSpace=wrap;html=1;" parent="1" vertex="1">
          <mxGeometry x="360" y="488" width="110" height="40" as="geometry" />
        </mxCell>
        <mxCell id="ZFQjSwjK31iPssHgUQ-2-8" value="&lt;div&gt;&lt;span style=&quot;color: rgb(51, 51, 255); background-color: initial;&quot;&gt;Original&lt;/span&gt;&lt;br&gt;&lt;/div&gt;&lt;div&gt;&lt;font color=&quot;#3333ff&quot;&gt;FIle&lt;/font&gt;&lt;/div&gt;" style="shape=note;whiteSpace=wrap;html=1;backgroundOutline=1;darkOpacity=0.05;strokeColor=#3333FF;size=15;" parent="1" vertex="1">
          <mxGeometry x="279" y="324" width="50" height="63" as="geometry" />
        </mxCell>
        <mxCell id="ZFQjSwjK31iPssHgUQ-2-10" value="&lt;div&gt;Opt.&lt;/div&gt;&lt;div&gt;Report&lt;/div&gt;" style="shape=note;whiteSpace=wrap;html=1;backgroundOutline=1;darkOpacity=0.05;size=14;" parent="1" vertex="1">
          <mxGeometry x="210" y="353" width="49" height="63" as="geometry" />
        </mxCell>
        <mxCell id="ZFQjSwjK31iPssHgUQ-2-12" value="&lt;div&gt;Evaliuation&lt;/div&gt;&lt;div&gt;(clang/test harness)&lt;/div&gt;" style="rounded=1;whiteSpace=wrap;html=1;" parent="1" vertex="1">
          <mxGeometry x="145" y="429" width="110" height="50" as="geometry" />
        </mxCell>
        <mxCell id="ZFQjSwjK31iPssHgUQ-2-15" value="" style="endArrow=classic;html=1;rounded=0;" parent="1" source="ZFQjSwjK31iPssHgUQ-2-12" target="ZFQjSwjK31iPssHgUQ-2-10" edge="1">
          <mxGeometry width="50" height="50" relative="1" as="geometry">
            <mxPoint x="256" y="428" as="sourcePoint" />
            <mxPoint x="451" y="443" as="targetPoint" />
          </mxGeometry>
        </mxCell>
        <mxCell id="ZFQjSwjK31iPssHgUQ-2-16" value="" style="curved=1;endArrow=classic;html=1;rounded=0;entryX=0;entryY=0.25;entryDx=0;entryDy=0;exitX=0;exitY=0;exitDx=50;exitDy=42;exitPerimeter=0;" parent="1" source="ZFQjSwjK31iPssHgUQ-2-8" target="ZFQjSwjK31iPssHgUQ-2-3" edge="1">
          <mxGeometry width="50" height="50" relative="1" as="geometry">
            <mxPoint x="400" y="317" as="sourcePoint" />
            <mxPoint x="330" y="350" as="targetPoint" />
          </mxGeometry>
        </mxCell>
        <mxCell id="ZFQjSwjK31iPssHgUQ-2-18" value="" style="endArrow=classic;html=1;rounded=0;entryX=0;entryY=0.5;entryDx=0;entryDy=0;exitX=0.959;exitY=0.771;exitDx=0;exitDy=0;exitPerimeter=0;" parent="1" source="ZFQjSwjK31iPssHgUQ-2-10" target="ZFQjSwjK31iPssHgUQ-2-3" edge="1">
          <mxGeometry width="50" height="50" relative="1" as="geometry">
            <mxPoint x="292" y="497" as="sourcePoint" />
            <mxPoint x="342" y="447" as="targetPoint" />
          </mxGeometry>
        </mxCell>
        <mxCell id="ZFQjSwjK31iPssHgUQ-2-20" value="&lt;div&gt;AI&lt;/div&gt;&lt;div&gt;(Gpt 4)&lt;br&gt;&lt;/div&gt;" style="rounded=1;whiteSpace=wrap;html=1;" parent="1" vertex="1">
          <mxGeometry x="511" y="414" width="69" height="50" as="geometry" />
        </mxCell>
        <mxCell id="ZFQjSwjK31iPssHgUQ-2-22" value="" style="endArrow=classic;html=1;rounded=0;entryX=1;entryY=0.5;entryDx=0;entryDy=0;" parent="1" target="ZFQjSwjK31iPssHgUQ-2-4" edge="1">
          <mxGeometry width="50" height="50" relative="1" as="geometry">
            <mxPoint x="511" y="427.4569536423842" as="sourcePoint" />
            <mxPoint x="450" y="368" as="targetPoint" />
          </mxGeometry>
        </mxCell>
        <mxCell id="ZFQjSwjK31iPssHgUQ-2-23" value="&lt;div&gt;Revised&lt;/div&gt;&lt;div&gt;FIle&lt;/div&gt;" style="shape=note;whiteSpace=wrap;html=1;backgroundOutline=1;darkOpacity=0.05;size=15;" parent="1" vertex="1">
          <mxGeometry x="280" y="405" width="50" height="65" as="geometry" />
        </mxCell>
        <mxCell id="ZFQjSwjK31iPssHgUQ-2-28" value="&lt;div&gt;&lt;span style=&quot;color: rgb(255, 51, 51); background-color: initial;&quot;&gt;Opt.&lt;/span&gt;&lt;br&gt;&lt;/div&gt;&lt;div&gt;&lt;font color=&quot;#ff3333&quot;&gt;Report&lt;/font&gt;&lt;/div&gt;" style="shape=note;whiteSpace=wrap;html=1;backgroundOutline=1;darkOpacity=0.05;strokeColor=#FF3333;size=15;" parent="1" vertex="1">
          <mxGeometry x="210" y="497" width="49" height="63" as="geometry" />
        </mxCell>
        <mxCell id="ZFQjSwjK31iPssHgUQ-2-33" value="" style="shape=curlyBracket;whiteSpace=wrap;html=1;rounded=1;flipH=1;labelPosition=right;verticalLabelPosition=middle;align=left;verticalAlign=middle;" parent="1" vertex="1">
          <mxGeometry x="475" y="351" width="20" height="57" as="geometry" />
        </mxCell>
        <mxCell id="ZFQjSwjK31iPssHgUQ-2-34" value="" style="endArrow=classic;html=1;rounded=0;entryX=0;entryY=0.25;entryDx=0;entryDy=0;exitX=0.1;exitY=0.5;exitDx=0;exitDy=0;exitPerimeter=0;" parent="1" source="ZFQjSwjK31iPssHgUQ-2-33" edge="1">
          <mxGeometry width="50" height="50" relative="1" as="geometry">
            <mxPoint x="400" y="458" as="sourcePoint" />
            <mxPoint x="511" y="414.5" as="targetPoint" />
          </mxGeometry>
        </mxCell>
        <mxCell id="ZFQjSwjK31iPssHgUQ-2-35" value="" style="shape=curlyBracket;whiteSpace=wrap;html=1;rounded=1;flipH=1;labelPosition=right;verticalLabelPosition=middle;align=left;verticalAlign=middle;strokeColor=#FF3333;" parent="1" vertex="1">
          <mxGeometry x="480" y="348" width="20" height="140" as="geometry" />
        </mxCell>
        <mxCell id="ZFQjSwjK31iPssHgUQ-2-36" value="" style="endArrow=classic;html=1;rounded=0;strokeColor=#FF3333;exitX=0.1;exitY=0.5;exitDx=0;exitDy=0;exitPerimeter=0;" parent="1" source="ZFQjSwjK31iPssHgUQ-2-35" edge="1">
          <mxGeometry width="50" height="50" relative="1" as="geometry">
            <mxPoint x="575" y="548" as="sourcePoint" />
            <mxPoint x="511" y="420.4631578947369" as="targetPoint" />
          </mxGeometry>
        </mxCell>
        <mxCell id="ZFQjSwjK31iPssHgUQ-2-37" value="" style="endArrow=classic;html=1;rounded=0;entryX=1;entryY=0.5;entryDx=0;entryDy=0;exitX=0;exitY=0.5;exitDx=0;exitDy=0;exitPerimeter=0;strokeColor=#FF3333;" parent="1" source="ZFQjSwjK31iPssHgUQ-2-23" target="ZFQjSwjK31iPssHgUQ-2-12" edge="1">
          <mxGeometry width="50" height="50" relative="1" as="geometry">
            <mxPoint x="150" y="490" as="sourcePoint" />
            <mxPoint x="200" y="440" as="targetPoint" />
          </mxGeometry>
        </mxCell>
        <mxCell id="ZFQjSwjK31iPssHgUQ-2-38" value="" style="endArrow=classic;html=1;rounded=0;entryX=0;entryY=0;entryDx=0;entryDy=0;entryPerimeter=0;strokeColor=#FF3333;" parent="1" source="ZFQjSwjK31iPssHgUQ-2-12" target="ZFQjSwjK31iPssHgUQ-2-28" edge="1">
          <mxGeometry width="50" height="50" relative="1" as="geometry">
            <mxPoint x="210" y="480" as="sourcePoint" />
            <mxPoint x="451" y="467" as="targetPoint" />
          </mxGeometry>
        </mxCell>
        <mxCell id="ZFQjSwjK31iPssHgUQ-2-39" value="&lt;div&gt;&lt;span style=&quot;color: rgb(255, 51, 51); background-color: initial;&quot;&gt;Revised&lt;/span&gt;&lt;br&gt;&lt;/div&gt;&lt;div&gt;&lt;font color=&quot;#ff3333&quot;&gt;FIle&lt;/font&gt;&lt;/div&gt;" style="shape=note;whiteSpace=wrap;html=1;backgroundOutline=1;darkOpacity=0.05;strokeColor=#FF3333;size=16;" parent="1" vertex="1">
          <mxGeometry x="281" y="501" width="49" height="64" as="geometry" />
        </mxCell>
        <mxCell id="ZFQjSwjK31iPssHgUQ-2-40" value="" style="endArrow=classic;html=1;rounded=0;strokeColor=#FF3333;exitX=0;exitY=0;exitDx=50;exitDy=40;exitPerimeter=0;" parent="1" source="ZFQjSwjK31iPssHgUQ-2-23" target="ZFQjSwjK31iPssHgUQ-2-5" edge="1">
          <mxGeometry width="50" height="50" relative="1" as="geometry">
            <mxPoint x="330" y="500" as="sourcePoint" />
            <mxPoint x="218" y="487" as="targetPoint" />
          </mxGeometry>
        </mxCell>
        <mxCell id="ZFQjSwjK31iPssHgUQ-2-41" value="" style="endArrow=classic;html=1;rounded=0;entryX=1;entryY=0.475;entryDx=0;entryDy=0;entryPerimeter=0;exitX=0;exitY=0.5;exitDx=0;exitDy=0;" parent="1" source="ZFQjSwjK31iPssHgUQ-2-4" target="ZFQjSwjK31iPssHgUQ-2-23" edge="1">
          <mxGeometry width="50" height="50" relative="1" as="geometry">
            <mxPoint x="610" y="540" as="sourcePoint" />
            <mxPoint x="660" y="490" as="targetPoint" />
          </mxGeometry>
        </mxCell>
        <mxCell id="ZFQjSwjK31iPssHgUQ-2-42" value="" style="endArrow=classic;html=1;rounded=0;entryX=1;entryY=0.5;entryDx=0;entryDy=0;strokeColor=#FF3333;exitX=0.25;exitY=1;exitDx=0;exitDy=0;" parent="1" source="ZFQjSwjK31iPssHgUQ-2-20" target="ZFQjSwjK31iPssHgUQ-2-6" edge="1">
          <mxGeometry width="50" height="50" relative="1" as="geometry">
            <mxPoint x="522.1975308641975" y="452" as="sourcePoint" />
            <mxPoint x="660" y="478" as="targetPoint" />
          </mxGeometry>
        </mxCell>
        <mxCell id="ZFQjSwjK31iPssHgUQ-2-44" value="" style="curved=1;endArrow=classic;html=1;rounded=0;entryX=0.25;entryY=0;entryDx=0;entryDy=0;exitX=0;exitY=0.088;exitDx=0;exitDy=0;exitPerimeter=0;" parent="1" source="ZFQjSwjK31iPssHgUQ-2-8" target="ZFQjSwjK31iPssHgUQ-2-12" edge="1">
          <mxGeometry width="50" height="50" relative="1" as="geometry">
            <mxPoint x="610" y="540" as="sourcePoint" />
            <mxPoint x="660" y="490" as="targetPoint" />
            <Array as="points">
              <mxPoint x="180" y="320" />
            </Array>
          </mxGeometry>
        </mxCell>
        <mxCell id="ZFQjSwjK31iPssHgUQ-2-45" value="" style="curved=1;endArrow=classic;html=1;rounded=0;entryX=0;entryY=0.5;entryDx=0;entryDy=0;strokeColor=#FF3333;" parent="1" source="ZFQjSwjK31iPssHgUQ-2-28" target="ZFQjSwjK31iPssHgUQ-2-5" edge="1">
          <mxGeometry width="50" height="50" relative="1" as="geometry">
            <mxPoint x="610" y="490" as="sourcePoint" />
            <mxPoint x="660" y="440" as="targetPoint" />
            <Array as="points">
              <mxPoint x="270" y="500" />
              <mxPoint x="310" y="480" />
            </Array>
          </mxGeometry>
        </mxCell>
        <mxCell id="ZFQjSwjK31iPssHgUQ-2-48" value="" style="endArrow=classic;html=1;rounded=0;strokeColor=#FF3333;exitX=0;exitY=0.5;exitDx=0;exitDy=0;entryX=1;entryY=0.475;entryDx=0;entryDy=0;entryPerimeter=0;" parent="1" source="ZFQjSwjK31iPssHgUQ-2-6" target="ZFQjSwjK31iPssHgUQ-2-39" edge="1">
          <mxGeometry width="50" height="50" relative="1" as="geometry">
            <mxPoint x="570" y="474" as="sourcePoint" />
            <mxPoint x="480" y="530" as="targetPoint" />
          </mxGeometry>
        </mxCell>
      </root>
    </mxGraphModel>
  </diagram>
</mxfile>
